<?xml version="1.0" standalone="no"?><!DOCTYPE svg PUBLIC "-//W3C//DTD SVG 1.1//EN" "http://www.w3.org/Graphics/SVG/1.1/DTD/svg11.dtd"><svg t="1587000767194" class="icon" viewBox="0 0 1024 1024" version="1.1" xmlns="http://www.w3.org/2000/svg" p-id="8064" xmlns:xlink="http://www.w3.org/1999/xlink" width="32" height="32"><defs><style type="text/css"></style></defs><path d="M319.73888 492.0832l267.93472-231.63392 162.18112-140.20608 37.76512-32.64512c16.16384-13.97248 29.96224 7.79776 39.59808 18.94912l133.00736 153.8304c18.14016 20.97664-53.76512 68.21888-65.67936 78.5152L547.328 639.13472l-60.2624 52.11136c-25.01632 21.632 11.36128 57.68704 36.20352 36.1984l267.904-231.6544 162.16576-140.22656 37.76-32.65024c29.1584-25.216 31.91296-67.9936 6.76352-97.08032l-127.65184-147.6352c-20.88448-24.15104-38.62016-46.67392-74.31168-46.53568-22.528 0.09216-38.78912 14.80704-54.6304 28.50304l-321.83296 278.2208-135.90016 117.49376c-25.02144 21.62688 11.36128 57.68192 36.20352 36.20352z" p-id="8065" fill="#1296db"></path><path d="M490.32192 694.64576l-286.63808 48.65024 31.488 31.488 91.01824-296.93952c9.7024-31.65184-39.72608-45.0816-49.37216-13.60896-30.34112 98.95936-60.68224 197.94944-91.01824 296.93952-6.20544 20.23936 13.30176 34.58048 31.488 31.488l286.66368-48.65024c32.52224-5.51424 18.69824-54.84544-13.62944-49.36704z" p-id="8066" fill="#1296db"></path><path d="M525.53728 689.76128C457.61024 611.24608 389.7344 532.736 321.86368 454.2464c-21.632-25.02144-57.68192 11.36128-36.20352 36.20352 67.87584 78.48448 135.75168 156.99968 203.63264 235.50976 21.66272 25.02144 57.72288-11.35616 36.24448-36.1984z" p-id="8067" fill="#1296db"></path><path d="M941.58848 600.79616v188.9024c0 23.52128 2.5088 48.83456-0.896 72.24832-6.8352 47.02208-48.72192 80.98816-95.5136 80.98816H255.24224c-44.40576 0-94.04928 7.02464-132.59776-19.0208-46.50496-31.41632-37.82144-93.40928-37.82144-141.73696v-221.76256V322.2016c0-38.78912-4.71552-80.93184 0.896-119.53152 6.9888-48.05632 49.59744-80.98816 96.95744-80.98816H485.1712c33.01888 0 33.01888-51.2 0-51.2H307.23072c-61.60384 0-135.75168-10.49088-193.29536 15.76448-49.13664 22.4256-80.31232 77.70112-80.31232 130.61632V843.4688c0 83.16928 64.86528 150.66624 148.81792 150.66624h595.3536c48.30208 0 96.21504 4.44416 140.5952-18.87232 79.52384-41.7792 74.39872-127.88736 74.39872-203.83744v-170.63424c0-33.00864-51.2-33.00864-51.2 0.00512zM741.71904 218.7776l128.34304 141.84448" p-id="8068" fill="#1296db"></path><path d="M723.61984 236.88192l128.33792 141.84448c22.1952 24.52992 58.2912-11.79136 36.1984-36.20352l-128.33792-141.84448c-22.1952-24.52992-58.28608 11.79136-36.1984 36.20352z" p-id="8069" fill="#1296db"></path></svg>