<?xml version="1.0" standalone="no"?><!DOCTYPE svg PUBLIC "-//W3C//DTD SVG 1.1//EN" "http://www.w3.org/Graphics/SVG/1.1/DTD/svg11.dtd"><svg t="1595928431160" class="icon" viewBox="0 0 1024 1024" version="1.1" xmlns="http://www.w3.org/2000/svg" p-id="10158" xmlns:xlink="http://www.w3.org/1999/xlink" width="64" height="64"><defs><style type="text/css"></style></defs><path d="M512.00064 478.72a239.36 239.36 0 1 0-239.36-239.36A239.36 239.36 0 0 0 512.00064 478.72zM813.44064 576A512 512 0 0 0 0.00064 990.72V1024h664.32a256 256 0 0 1 149.12-448z" fill="" p-id="10159"></path><path d="M960.00064 768h-64v-64a64 64 0 0 0-128 0v64h-64a64 64 0 0 0 0 128h64v64a64 64 0 0 0 128 0v-64h64a64 64 0 0 0 0-128z" fill="" p-id="10160"></path></svg>