<?xml version="1.0" standalone="no"?><!DOCTYPE svg PUBLIC "-//W3C//DTD SVG 1.1//EN" "http://www.w3.org/Graphics/SVG/1.1/DTD/svg11.dtd"><svg t="1596010176217" class="icon" viewBox="0 0 1024 1024" version="1.1" xmlns="http://www.w3.org/2000/svg" p-id="12742" width="64" height="64" xmlns:xlink="http://www.w3.org/1999/xlink"><defs><style type="text/css"></style></defs><path d="M735.095467 396.970667v81.237333c0 50.517333-18.773333 93.866667-55.7056 129.501867a186.299733 186.299733 0 0 1-129.706667 53.930666l185.412267-264.669866z m-361.813334 159.607466a173.397333 173.397333 0 0 1-17.749333-78.370133V184.32c0-50.5856 18.773333-93.934933 55.7056-129.570133A184.797867 184.797867 0 0 1 545.314133 0.8192c52.155733 0 96.529067 17.749333 134.075734 53.998933 9.557333 9.216 17.885867 18.909867 24.9856 29.013334l-331.093334 472.746666z m-28.2624 397.5168l50.858667-72.704h111.957333v-75.093333a372.1216 372.1216 0 0 1-52.770133-9.4208l45.397333-64.853333c14.882133 2.389333 30.242133 3.618133 46.08 3.618133 73.386667 0 135.441067-24.9856 187.733334-75.707733 51.746133-50.107733 77.960533-110.728533 77.960533-181.589334V405.0944a35.498667 35.498667 0 0 1 11.400533-26.077867 37.0688 37.0688 0 0 1 26.624-11.127466c10.24 0 19.2512 3.959467 26.624 11.127466a35.157333 35.157333 0 0 1 9.8304 25.463467v73.250133c0 84.241067-29.0816 157.969067-87.2448 220.5696-58.231467 62.600533-130.116267 98.304-215.8592 107.451734v75.639466h151.825067c10.24 0 19.182933 3.959467 26.624 11.127467a35.498667 35.498667 0 0 1 0 52.087467 37.137067 37.137067 0 0 1-26.624 11.127466H356.1472a37.205333 37.205333 0 0 1-11.127467-1.6384z m-63.2832-266.786133A311.5008 311.5008 0 0 1 204.8 478.344533V405.0944a35.498667 35.498667 0 0 1 11.400533-26.077867 37.0688 37.0688 0 0 1 26.624-11.127466c10.308267 0 19.2512 3.959467 26.624 11.127466a35.498667 35.498667 0 0 1 11.400534 26.077867v73.250133c0 54.340267 15.36 102.6048 45.8752 144.7936l-44.987734 64.170667z" p-id="12743"></path><path d="M814.2848 49.834667l55.978667 39.185066L243.712 983.722667l-55.978667-39.1168z" p-id="12744"></path></svg>