<?xml version="1.0" standalone="no"?><!DOCTYPE svg PUBLIC "-//W3C//DTD SVG 1.1//EN" "http://www.w3.org/Graphics/SVG/1.1/DTD/svg11.dtd"><svg t="1586915193557" class="icon" viewBox="0 0 1060 1024" version="1.1" xmlns="http://www.w3.org/2000/svg" p-id="3707" xmlns:xlink="http://www.w3.org/1999/xlink" width="207.03125" height="200"><defs><style type="text/css"></style></defs><path d="M763.537299 484.719192c22.367677-41.761616 38.012121-99.684848-1.292929-138.860606-20.557576-20.557576-49.777778-31.159596-87.143434-31.159596-59.733333 0-123.862626 27.410101-135.111111 32.323232-0.646465 0-1.292929 0.646465-1.810101 0.646465 0-0.646465 0.646465-1.810101 0.646464-2.456566 1.292929-5.559596 2.456566-11.894949 3.749495-18.10101l0.646465-4.395959c0-30.513131-6.206061-55.466667-18.10101-75.377778-12.412121-21.20404-38.658586-46.028283-90.246465-46.028283-23.660606 0-51.717172 5.559596-82.876768 16.161616C205.638309 267.377778 83.585784 436.751515 78.54336 443.60404c-89.082828 118.949495-78.480808 212.945455-77.834343 216.69495 18.10101 163.167677 158.125253 259.620202 405.333333 279.014141 13.705051 1.292929 28.056566 1.810101 42.408081 1.810101 168.727273 0 374.173737-74.731313 441.535353-217.987878 19.911111-41.761616 21.20404-82.230303 5.042424-120.759596-26.246465-61.672727-92.961616-100.20202-131.490909-117.656566zM844.474673 701.414141c-57.923232 122.69899-247.208081 189.284848-396.024242 189.284849-13.058586 0-25.470707-0.646465-38.012122-1.292929-153.858586-11.894949-340.557576-62.319192-359.30505-234.79596 0-0.646465-8.145455-79.644444 68.525253-181.139394 1.292929-1.810101 118.30303-163.167677 249.018181-208.032323 26.117172-8.662626 48.614141-13.058586 66.585859-13.058586 26.117172 0 56.630303 8.145455 57.276768 68.525253-1.292929 5.042424-1.810101 9.955556-3.103031 14.351515-4.39596 19.911111-8.662626 38.658586 3.749495 53.527272 7.49899 9.309091 23.014141 19.264646 63.482829 6.852526l3.10303-1.29293c0.646465 0 62.319192-28.70303 115.846464-28.70303 23.660606 0 40.468687 5.559596 51.717172 16.161616 24.953535 24.953535-7.49899 82.230303-21.20404 100.20202-9.955556 13.705051-3.749495 33.616162 12.412121 38.658586 28.70303 9.309091 107.054545 46.674747 130.715152 101.49495 10.084848 24.436364 8.921212 50.553535-4.783839 79.256565z m0 0M1024.967602 223.159596C987.731239 159.030303 918.559522 109.252525 839.432249 91.151515c-41.761616-9.955556-90.892929-9.309091-146.359596 1.292929 0 0-18.618182 13.058586-13.705051 31.159596 5.042424 18.618182 23.660606 18.10101 23.660606 18.101011 47.967677-9.309091 89.729293-9.309091 124.509091-1.29293 24.953535 5.559596 108.347475 30.513131 153.858586 108.347475 31.806061 54.820202 36.072727 122.052525 13.058586 199.886869-1.292929 3.10303-1.810101 6.206061-1.810101 9.955555 0 13.705051 11.248485 24.953535 25.470707 24.953536h18.618182l5.559596-18.101011c27.539394-93.478788 21.979798-175.062626-17.325253-242.294949z m0 0" p-id="3708" fill="#0590DF"></path><path d="M726.171643 232.468687c-13.705051 2.456566-23.014141 15.515152-19.911111 29.220202 2.456566 13.705051 15.515152 23.014141 29.220202 19.911111 0.646465 0 61.026263-9.955556 95.288889 21.850505 21.850505 19.911111 29.866667 54.173737 24.953535 102.141414-1.292929 13.705051 8.662626 26.117172 22.367677 28.056566h3.10303c12.412121 0 23.660606-9.309091 24.953535-22.367677 6.852525-64.129293-6.206061-112.743434-40.468686-144.420202-54.173737-49.907071-135.757576-35.038384-139.507071-34.391919z m0 0M390.527198 569.406061c-8.145455 0-16.161616 1.292929-24.30707 3.10303-30.513131 6.852525-56.630303 24.953535-72.274748 49.131313-12.412121 19.911111-16.808081 43.571717-11.894949 65.422222 9.309091 41.761616 49.131313 70.335354 97.745454 70.335354h3.103031c8.145455 0 16.161616-1.292929 24.30707-3.103031 27.410101-6.206061 51.070707-21.20404 66.585859-41.761616 16.808081-21.850505 23.014141-47.967677 17.454545-72.791919-9.826263-42.925253-51.587879-71.628283-100.719192-70.335353z m47.967677 115.717171c-9.309091 12.412121-24.307071 21.850505-41.761616 25.470707-5.042424 1.292929-10.60202 1.810101-15.515152 1.810101-28.70303 0.646465-51.717172-13.705051-56.630303-35.426262-2.456566-10.60202 0-21.850505 6.206061-31.806061 9.309091-14.351515 25.470707-25.470707 44.218182-29.866666 5.042424-1.292929 10.60202-1.810101 15.515151-1.810102 28.70303-0.646465 51.717172 13.705051 56.630303 35.555556 3.10303 11.894949 0 24.953535-8.662626 36.072727z m0 0" p-id="3709" fill="#0590DF"></path><path d="M573.605986 527.644444c-38.658586-22.367677-89.082828-34.262626-141.963636-32.969697-11.248485 0-22.367677 1.292929-33.616162 2.456566-59.086869 7.49899-113.260606 29.866667-152.565656 62.836364-41.761616 35.555556-61.672727 79.127273-55.983839 123.345454 5.042424 39.822222 30.513131 75.377778 72.274748 99.684849 36.719192 21.20404 84.040404 32.969697 134.464646 32.969697h8.145455c11.248485 0 22.367677-1.292929 33.616161-2.456566 59.216162-7.49899 113.260606-29.866667 152.565657-62.836364 41.761616-35.555556 61.672727-79.127273 55.983838-123.345454-5.688889-39.951515-31.159596-75.377778-72.921212-99.684849zM560.5474 717.575758c-32.323232 27.410101-78.480808 46.028283-128.90505 52.363636-9.955556 1.292929-19.264646 1.810101-29.220202 1.810101-44.864646 1.292929-87.143434-8.662626-118.949495-26.763636-29.220202-17.454545-47.321212-41.115152-50.424242-66.585859-3.749495-29.220202 11.248485-59.086869 41.761616-85.333333 32.323232-27.410101 78.480808-46.028283 128.90505-52.363637 9.955556-1.292929 19.264646-1.810101 29.220202-1.810101 44.864646-1.292929 87.143434 8.662626 118.949495 26.763637 29.220202 17.454545 47.321212 41.115152 50.424243 66.585858 3.620202 29.220202-11.248485 59.733333-41.761617 85.333334z m0 0" p-id="3710" fill="#0590DF"></path></svg>