<?xml version="1.0" encoding="UTF-8"?>
<svg width="80px" height="80px" viewBox="0 0 80 80" version="1.1" xmlns="http://www.w3.org/2000/svg" xmlns:xlink="http://www.w3.org/1999/xlink">
    <title>编组 22</title>
    <defs>
        <radialGradient cx="50%" cy="50%" fx="50%" fy="50%" r="50.9689457%" id="radialGradient-1">
            <stop stop-color="#3BCCFF" offset="0%"></stop>
            <stop stop-color="#3BCCFF" offset="85.6506774%"></stop>
            <stop stop-color="#1C6078" stop-opacity="0" offset="100%"></stop>
        </radialGradient>
        <linearGradient x1="50%" y1="0%" x2="50%" y2="99.8415647%" id="linearGradient-2">
            <stop stop-color="#3AF7FF" offset="0%"></stop>
            <stop stop-color="#FFFFFF" stop-opacity="0" offset="100%"></stop>
        </linearGradient>
    </defs>
    <g id="页面-2" stroke="none" stroke-width="1" fill="none" fill-rule="evenodd">
        <g id="管理门户2.0" transform="translate(-1630.000000, -176.000000)">
            <g id="运维概览" transform="translate(1440.000000, 100.000000)">
                <g id="编组-14" transform="translate(10.000000, 16.000000)">
                    <g id="编组-24" transform="translate(18.000000, 50.000000)">
                        <g id="编组-23" transform="translate(152.000000, 0.000000)">
                            <g id="编组-22" transform="translate(10.000000, 10.000000)">
                                <path d="M70.992341,27.7025034 C69.2923847,23.6028862 66.8027878,19.9134588 63.7132756,16.8239466 C60.6237634,13.7344344 56.934336,11.2448375 52.8347188,9.54488116 C48.8801207,7.90505882 44.5438395,7 39.9961705,7 C35.4485015,7 31.1122203,7.90505882 27.1576222,9.54488116 M9,53.3795999 C10.6999563,57.4792172 13.1895532,61.1686446 16.2790654,64.2581567 C19.3685776,67.3476689 23.058005,69.8372659 27.1576222,71.5372222 C31.1122203,73.1770445 35.4485015,74.0821033 39.9961705,74.0821033 C45.3618539,74.0821033 50.433263,72.8221652 54.9306858,70.5820012" id="形状" stroke-opacity="0.4" stroke="#40B4FF"></path>
                                <path d="M14.3361833,14.0432901 C7.76823983,20.6112335 3.70588235,29.6847629 3.70588235,39.7071067 C3.70588235,49.7294505 7.76823983,58.8029799 14.3361833,65.3709233 M68.9372605,61.6169922 C73.5544312,55.5283862 76.2941174,47.9376904 76.2941174,39.7071067 C76.2941174,29.6847629 72.2317599,20.6112335 65.6638165,14.0432901" id="形状" stroke-opacity="0.2" stroke="#40A1FF" stroke-width="2"></path>
                                <path d="M40,69.4117647 C56.2436691,69.4117647 69.4117647,56.2436691 69.4117647,40 C69.4117647,23.7563309 56.2436691,10.5882353 40,10.5882353 C23.7563309,10.5882353 10.5882353,23.7563309 10.5882353,40 C10.5882353,56.2436691 23.7563309,69.4117647 40,69.4117647 Z" id="椭圆形" stroke="" stroke-width="4"></path>
                                <path d="M40.5579401,61.9004525 L40.6318897,65.8823529 L39.5719457,65.8823529 L39.5719457,65.8823529 L39.6458953,61.9004525 L40.5579401,61.9004525 L40.5579401,61.9004525 Z M42.6587423,61.7411765 L43.15376,65.6932127 C42.8607903,65.7330317 42.5779231,65.7529412 42.2849534,65.7828054 L41.921267,61.8108597 C42.1637246,61.7909502 42.4162846,61.7710407 42.6587423,61.7411765 Z M37.3592711,61.7411765 C37.6017287,61.7710407 37.8542888,61.7909502 38.0967464,61.8108597 L37.7330599,65.7828054 C37.4400903,65.7529412 37.157223,65.7330317 36.8642534,65.6932127 L37.3592711,61.7411765 Z M44.9076923,61.3429864 L45.8036199,65.2253394 C45.5248869,65.2850679 45.2361991,65.3447964 44.9574661,65.4045249 L44.1909502,61.4923077 C44.4298643,61.4425339 44.6687783,61.3927602 44.9076923,61.3429864 Z M35.0923077,61.3429864 C35.3312217,61.3927602 35.5701357,61.4425339 35.8090498,61.4923077 L35.0425339,65.4045249 C34.7638009,65.3447964 34.4751131,65.2850679 34.1963801,65.2253394 L35.0923077,61.3429864 Z M47.1176471,60.7158371 L48.4117647,64.478733 C48.1429864,64.5683258 47.8642534,64.6678733 47.5855204,64.7475113 L46.4208145,60.9348416 C46.6497738,60.8651584 46.8886878,60.7954751 47.1176471,60.7158371 Z M32.8823529,60.7158371 C33.1113122,60.7954751 33.3502262,60.8651584 33.5791855,60.9348416 L32.4144796,64.7475113 C32.1357466,64.6678733 31.8570136,64.5683258 31.5882353,64.478733 L32.8823529,60.7158371 Z M49.238009,59.8597285 L50.920362,63.4633484 C50.6615385,63.5828054 50.4027149,63.7122172 50.1339367,63.8217195 L48.5710407,60.1484163 C48.8,60.0488688 49.0190045,59.959276 49.238009,59.8597285 Z M30.761991,59.8597285 C30.9809955,59.959276 31.2,60.0488688 31.4289593,60.1484163 L29.8660633,63.8217195 C29.5972851,63.7122172 29.3384615,63.5828054 29.079638,63.4633484 L30.761991,59.8597285 Z M51.2687783,58.7846154 L53.3095023,62.199095 C53.0606335,62.3484163 52.8117647,62.4877828 52.5628959,62.6271493 L50.6316742,59.1429864 C50.840724,59.0235294 51.0597285,58.9140271 51.2687783,58.7846154 Z M28.7312217,58.7846154 C28.9402715,58.9140271 29.159276,59.0235294 29.3683258,59.1429864 L27.4371041,62.6271493 C27.1882353,62.4877828 26.9393665,62.3484163 26.6904977,62.199095 L28.7312217,58.7846154 Z M53.1701357,57.5004525 L55.559276,60.6859729 C55.3303167,60.8552036 55.1013575,61.0244344 54.8624434,61.1936652 L52.5728507,57.9285068 C52.7719457,57.7891403 52.9710407,57.6497738 53.1701357,57.5004525 Z M26.8298643,57.5004525 C27.0289593,57.6497738 27.2280543,57.7891403 27.4271493,57.9285068 L25.1375566,61.1936652 C24.8986425,61.0244344 24.6696833,60.8552036 24.440724,60.6859729 L26.8298643,57.5004525 Z M54.9221719,56.0271493 L57.639819,58.9438914 C57.4307692,59.1429864 57.2117647,59.3321267 56.9927602,59.521267 L54.3846154,56.5149321 C54.5638009,56.3556561 54.7429864,56.1963801 54.9221719,56.0271493 Z M25.0778281,56.0271493 C25.2570136,56.1963801 25.4361991,56.3556561 25.6153846,56.5149321 L23.0072398,59.521267 C22.7882353,59.3321267 22.5692308,59.1429864 22.360181,58.9438914 L25.0778281,56.0271493 Z M56.5149321,54.3846154 L59.521267,56.9927602 C59.3321267,57.2117647 59.1429864,57.4307692 58.9438914,57.639819 L56.0271493,54.9221719 C56.1963801,54.7429864 56.3556561,54.5638009 56.5149321,54.3846154 Z M23.4850679,54.3846154 C23.6443439,54.5638009 23.8036199,54.7429864 23.9728507,54.9221719 L21.0561086,57.639819 C20.8570136,57.4307692 20.6678733,57.2117647 20.478733,56.9927602 L23.4850679,54.3846154 Z M57.9285068,52.5728507 L61.1936652,54.8624434 C61.0244344,55.1013575 60.8552036,55.3303167 60.6859729,55.559276 L57.5004525,53.1701357 C57.6497738,52.9710407 57.7891403,52.7719457 57.9285068,52.5728507 Z M22.0714932,52.5728507 C22.2108597,52.7719457 22.3502262,52.9710407 22.4995475,53.1701357 L19.3140271,55.559276 C19.1447964,55.3303167 18.9755656,55.1013575 18.8063348,54.8624434 L22.0714932,52.5728507 Z M59.1429864,50.6316742 L62.6271493,52.5628959 C62.4877828,52.8117647 62.3484163,53.0606335 62.199095,53.3095023 L58.7846154,51.2687783 C58.9140271,51.0597285 59.0235294,50.840724 59.1429864,50.6316742 Z M20.8570136,50.6316742 C20.9764706,50.840724 21.0859729,51.0597285 21.2153846,51.2687783 L17.800905,53.3095023 C17.6515837,53.0606335 17.5122172,52.8117647 17.3728507,52.5628959 L20.8570136,50.6316742 Z M60.1484163,48.5710407 L63.8217195,50.1339367 C63.7122172,50.4027149 63.5828054,50.6615385 63.4633484,50.920362 L59.8597285,49.238009 C59.959276,49.0190045 60.0488688,48.8 60.1484163,48.5710407 Z M19.8515837,48.5710407 C19.9511312,48.8 20.040724,49.0190045 20.1402715,49.238009 L16.5366516,50.920362 C16.4171946,50.6615385 16.2877828,50.4027149 16.1782805,50.1339367 L19.8515837,48.5710407 Z M60.9348416,46.4208145 L64.7475113,47.5855204 C64.6678733,47.8642534 64.5683258,48.1429864 64.478733,48.4117647 L60.7158371,47.1176471 C60.7954751,46.8886878 60.8651584,46.6497738 60.9348416,46.4208145 Z M19.0651584,46.4208145 C19.1348416,46.6497738 19.2045249,46.8886878 19.2841629,47.1176471 L15.521267,48.4117647 C15.4316742,48.1429864 15.3321267,47.8642534 15.2524887,47.5855204 L19.0651584,46.4208145 Z M61.4923077,44.1909502 L65.4045249,44.9574661 C65.3447964,45.2361991 65.2850679,45.5248869 65.2253394,45.8036199 L61.3429864,44.9076923 C61.3927602,44.6687783 61.4425339,44.4298643 61.4923077,44.1909502 Z M18.5076923,44.1909502 C18.5574661,44.4298643 18.6072398,44.6687783 18.6570136,44.9076923 L14.7746606,45.8036199 L14.5954751,44.9574661 L14.5954751,44.9574661 L18.5076923,44.1909502 Z M61.8108597,41.921267 L65.7828054,42.2849534 C65.7529412,42.5779231 65.7330317,42.8607903 65.6932127,43.15376 L61.7411765,42.6587423 C61.7710407,42.4162846 61.7909502,42.1637246 61.8108597,41.921267 Z M18.1891403,41.921267 C18.2090498,42.1637246 18.2289593,42.4162846 18.2588235,42.6587423 L14.3067873,43.15376 C14.2669683,42.8607903 14.2470588,42.5779231 14.2171946,42.2849534 L18.1891403,41.921267 Z M65.8823529,39.5719457 L65.8823529,40.6318897 L65.8823529,40.6318897 L61.9004525,40.5579401 L61.9004525,39.6458953 L61.9004525,39.6458953 L65.8823529,39.5719457 Z M14.1176471,39.5719457 L18.0995475,39.6458953 L18.0995475,40.5579401 L18.0995475,40.5579401 L14.1176471,40.6318897 L14.1176471,39.5719457 L14.1176471,39.5719457 Z M65.6932127,36.8642534 C65.7330317,37.157223 65.7529412,37.4400903 65.7828054,37.7330599 L61.8108597,38.0967464 C61.7909502,37.8542888 61.7710407,37.6017287 61.7411765,37.3592711 L65.6932127,36.8642534 Z M14.3067873,36.8642534 L18.2588235,37.3592711 C18.2289593,37.6017287 18.2090498,37.8542888 18.1891403,38.0967464 L14.2171946,37.7330599 C14.2470588,37.4400903 14.2669683,37.157223 14.3067873,36.8642534 Z M65.2253394,34.1963801 C65.2850679,34.4751131 65.3447964,34.7638009 65.4045249,35.0425339 L61.4923077,35.8090498 C61.4425339,35.5701357 61.3927602,35.3312217 61.3429864,35.0923077 L65.2253394,34.1963801 Z M14.7746606,34.1963801 L18.6570136,35.0923077 C18.6072398,35.3312217 18.5574661,35.5701357 18.5076923,35.8090498 L14.5954751,35.0425339 L14.7746606,34.1963801 L14.7746606,34.1963801 Z M64.478733,31.5882353 C64.5683258,31.8570136 64.6678733,32.1357466 64.7475113,32.4144796 L60.9348416,33.5791855 C60.8651584,33.3502262 60.7954751,33.1113122 60.7158371,32.8823529 L64.478733,31.5882353 Z M15.521267,31.5882353 L19.2841629,32.8823529 C19.2045249,33.1113122 19.1348416,33.3502262 19.0651584,33.5791855 L15.2524887,32.4144796 C15.3321267,32.1357466 15.4316742,31.8570136 15.521267,31.5882353 Z M63.4633484,29.079638 C63.5828054,29.3384615 63.7122172,29.5972851 63.8217195,29.8660633 L60.1484163,31.4289593 C60.0488688,31.2 59.959276,30.9809955 59.8597285,30.761991 L63.4633484,29.079638 Z M16.5366516,29.079638 L20.1402715,30.761991 C20.040724,30.9809955 19.9511312,31.2 19.8515837,31.4289593 L16.1782805,29.8660633 C16.2877828,29.5972851 16.4171946,29.3384615 16.5366516,29.079638 Z M62.199095,26.6904977 C62.3484163,26.9393665 62.4877828,27.1882353 62.6271493,27.4371041 L59.1429864,29.3683258 C59.0235294,29.159276 58.9140271,28.9402715 58.7846154,28.7312217 L62.199095,26.6904977 Z M17.800905,26.6904977 L21.2153846,28.7312217 C21.0859729,28.9402715 20.9764706,29.159276 20.8570136,29.3683258 L17.3728507,27.4371041 C17.5122172,27.1882353 17.6515837,26.9393665 17.800905,26.6904977 Z M60.6859729,24.440724 C60.8552036,24.6696833 61.0244344,24.8986425 61.1936652,25.1375566 L57.9285068,27.4271493 C57.7891403,27.2280543 57.6497738,27.0289593 57.5004525,26.8298643 L60.6859729,24.440724 Z M19.3140271,24.440724 L22.4995475,26.8298643 C22.3502262,27.0289593 22.2108597,27.2280543 22.0714932,27.4271493 L18.8063348,25.1375566 C18.9755656,24.8986425 19.1447964,24.6696833 19.3140271,24.440724 Z M58.9438914,22.360181 C59.1429864,22.5692308 59.3321267,22.7882353 59.521267,23.0072398 L56.5149321,25.6153846 C56.3556561,25.4361991 56.1963801,25.2570136 56.0271493,25.0778281 L58.9438914,22.360181 Z M21.0561086,22.360181 L23.9728507,25.0778281 C23.8036199,25.2570136 23.6443439,25.4361991 23.4850679,25.6153846 L20.478733,23.0072398 C20.6678733,22.7882353 20.8570136,22.5692308 21.0561086,22.360181 Z M56.9927602,20.478733 C57.2117647,20.6678733 57.4307692,20.8570136 57.639819,21.0561086 L54.9221719,23.9728507 C54.7429864,23.8036199 54.5638009,23.6443439 54.3846154,23.4850679 L56.9927602,20.478733 Z M23.0072398,20.478733 L25.6153846,23.4850679 C25.4361991,23.6443439 25.2570136,23.8036199 25.0778281,23.9728507 L22.360181,21.0561086 C22.5692308,20.8570136 22.7882353,20.6678733 23.0072398,20.478733 Z M54.8624434,18.8063348 C55.1013575,18.9755656 55.3303167,19.1447964 55.559276,19.3140271 L53.1701357,22.4995475 C52.9710407,22.3502262 52.7719457,22.2108597 52.5728507,22.0714932 L54.8624434,18.8063348 Z M25.1375566,18.8063348 L27.4271493,22.0714932 C27.2280543,22.2108597 27.0289593,22.3502262 26.8298643,22.4995475 L24.440724,19.3140271 C24.6696833,19.1447964 24.8986425,18.9755656 25.1375566,18.8063348 Z M52.5628959,17.3728507 C52.8117647,17.5122172 53.0606335,17.6515837 53.3095023,17.800905 L51.2687783,21.2153846 C51.0597285,21.0859729 50.840724,20.9764706 50.6316742,20.8570136 L52.5628959,17.3728507 Z M27.4371041,17.3728507 L29.3683258,20.8570136 L29.0497738,21.0324661 L29.0497738,21.0324661 L28.7312217,21.2153846 L28.7312217,21.2153846 L26.6904977,17.800905 C26.9393665,17.6515837 27.1882353,17.5122172 27.4371041,17.3728507 Z M50.1339367,16.1782805 C50.4027149,16.2877828 50.6615385,16.4171946 50.920362,16.5366516 L49.238009,20.1402715 C49.0190045,20.040724 48.8,19.9511312 48.5710407,19.8515837 L50.1339367,16.1782805 Z M29.8660633,16.1782805 L31.4289593,19.8515837 C31.2,19.9511312 30.9809955,20.040724 30.761991,20.1402715 L29.079638,16.5366516 C29.3384615,16.4171946 29.5972851,16.2877828 29.8660633,16.1782805 Z M47.5855204,15.2524887 C47.8642534,15.3321267 48.1429864,15.4316742 48.4117647,15.521267 L47.1176471,19.2841629 C46.8886878,19.2045249 46.6497738,19.1348416 46.4208145,19.0651584 L47.5855204,15.2524887 Z M32.4144796,15.2524887 L33.5791855,19.0651584 C33.3502262,19.1348416 33.1113122,19.2045249 32.8823529,19.2841629 L31.5882353,15.521267 C31.8570136,15.4316742 32.1357466,15.3321267 32.4144796,15.2524887 Z M44.9574661,14.5954751 L45.8036199,14.7746606 L45.8036199,14.7746606 L44.9076923,18.6570136 C44.6687783,18.6072398 44.4298643,18.5574661 44.1909502,18.5076923 L44.9574661,14.5954751 Z M35.0425339,14.5954751 L35.8090498,18.5076923 C35.5701357,18.5574661 35.3312217,18.6072398 35.0923077,18.6570136 L34.1963801,14.7746606 L35.0425339,14.5954751 L35.0425339,14.5954751 Z M42.2849534,14.2171946 C42.5779231,14.2470588 42.8607903,14.2669683 43.15376,14.3067873 L42.6587423,18.2588235 C42.4162846,18.2289593 42.1637246,18.2090498 41.921267,18.1891403 L42.2849534,14.2171946 Z M37.7330599,14.2171946 L38.0967464,18.1891403 C37.8542888,18.2090498 37.6017287,18.2289593 37.3592711,18.2588235 L36.8642534,14.3067873 C37.157223,14.2669683 37.4400903,14.2470588 37.7330599,14.2171946 Z M40.6318897,14.1176471 L40.5579401,18.0995475 L39.6458953,18.0995475 L39.6458953,18.0995475 L39.5719457,14.1176471 L40.6318897,14.1176471 L40.6318897,14.1176471 Z" id="形状结合" fill="url(#radialGradient-1)"></path>
                                <path d="M71.2941177,39.9286495 C71.2941177,31.3067204 67.7993904,23.5010286 62.1491809,17.8508191 C56.4989714,12.2006096 48.6932796,8.70588235 40.0713505,8.70588235 C31.4494215,8.70588235 23.6437297,12.2006096 17.9935201,17.8508191 C15.356714,20.4876252 29.3683258,32.5837104 36.7333119,36.0420504 C51.1775394,42.8245545 71.2941177,44.5269481 71.2941177,39.9286495 Z" id="椭圆形" fill="url(#linearGradient-2)" opacity="0.36"></path>
                            </g>
                        </g>
                    </g>
                </g>
            </g>
        </g>
    </g>
</svg>