<?xml version="1.0" encoding="UTF-8"?>
<svg width="24px" height="30px" viewBox="0 0 24 30" version="1.1" xmlns="http://www.w3.org/2000/svg" xmlns:xlink="http://www.w3.org/1999/xlink">
    <title>dingwei</title>
    <g id="页面-2" stroke="none" stroke-width="1" fill="none" fill-rule="evenodd">
        <g id="资源管理2.0" transform="translate(-204.000000, -446.000000)" fill-rule="nonzero">
            <g id="运营概览" transform="translate(20.000000, 100.000000)">
                <g id="编组-14" transform="translate(16.000000, 198.000000)">
                    <g id="编组-9备份-4" transform="translate(146.000000, 126.000000)">
                        <g id="dingwei" transform="translate(22.000000, 22.000000)">
                            <path d="M12.0137917,30 C11.7706182,30 11.5274448,29.9314246 11.3123018,29.793901 C11.1841625,29.7115359 8.13539377,27.7407376 5.22714139,24.2474901 C1.30797189,19.5403828 -0.463408271,15.2498349 0.103389696,10.0518915 C0.964325594,2.16422579 7.84817245,0.0480773424 11.4218755,0.0257157878 C11.5456464,0.0152803956 11.7964645,0 12.1477555,0 C14.4808372,0 22.2161551,0.731222835 23.8102516,10.1402196 C24.5998372,14.8014857 22.9154607,18.9090416 18.9391382,23.8073401 C16.0163245,27.4082958 12.9049422,29.6604771 12.7738907,29.7547683 C12.5510823,29.9143777 12.2857265,30 12.0137917,30 L12.0137917,30 Z M12.1473915,2.70910234 C11.8110258,2.70910234 11.6111722,2.72810966 11.609352,2.72810966 C11.5678524,2.73220928 11.5219843,2.73444543 11.4808487,2.73444543 C11.1586803,2.73593621 3.55222974,2.85035283 2.73352156,10.3526544 C1.73498153,19.5033752 9.50306234,25.1300261 11.9762964,26.9737363 C14.4833854,24.941071 22.5627136,18.6335108 21.2026897,10.6031038 C19.9959234,3.47833982 14.468096,2.70910234 12.1473915,2.70910234 Z" id="形状结合" fill="#27D7FF"></path>
                            <path d="M12,17 C8.96712693,17 6.5,14.5328731 6.5,11.5 C6.5,8.46712693 8.96712693,6 12,6 C15.0328731,6 17.5,8.46712693 17.5,11.5 C17.5,14.5328731 15.0328731,17 12,17 L12,17 Z M12,8.53227135 C10.3637256,8.53227135 9.03227135,9.86372561 9.03227135,11.5 C9.03227135,13.1362744 10.3637256,14.4677287 12,14.4677287 C13.6362744,14.4677287 14.9677287,13.1362744 14.9677287,11.5 C14.9677287,9.86372561 13.6362744,8.53227135 12,8.53227135 L12,8.53227135 Z" id="形状" fill="#FFFFFF"></path>
                        </g>
                    </g>
                </g>
            </g>
        </g>
    </g>
</svg>