<?xml version="1.0" encoding="UTF-8"?>
<svg width="30px" height="28px" viewBox="0 0 30 28" version="1.1" xmlns="http://www.w3.org/2000/svg" xmlns:xlink="http://www.w3.org/1999/xlink">
    <title>DTS</title>
    <g id="页面-2" stroke="none" stroke-width="1" fill="none" fill-rule="evenodd">
        <g id="资源管理2.0" transform="translate(-348.000000, -362.000000)" fill-rule="nonzero">
            <g id="运营概览" transform="translate(20.000000, 100.000000)">
                <g id="编组-14" transform="translate(16.000000, 198.000000)">
                    <g id="编组-9备份-5" transform="translate(292.000000, 40.000000)">
                        <g id="DTS" transform="translate(20.000000, 24.000000)">
                            <path d="M13.0800391,26.4725668 C13.0883576,26.454483 13.0992079,26.4374842 13.1064415,26.4194003 C13.1350139,26.3485117 13.1581612,26.274368 13.1737133,26.1966075 L15.1350863,16.3908279 C15.2703534,15.713769 14.8312778,15.0555174 14.1545806,14.9202503 C13.4778835,14.7835365 12.8192701,15.2240587 12.6836414,15.9007559 L11.3143332,22.7472965 L11.0271619,22.3165395 C10.6441463,21.7421968 9.86834967,21.5863142 9.29364534,21.9696915 C8.71930269,22.3527072 8.56414337,23.1288654 8.94679735,23.7032081 L10.9078086,26.6447249 L10.9088936,26.64581 C10.9494014,26.70621 10.9953344,26.7604615 11.0437991,26.8114579 C11.055011,26.8233933 11.0665847,26.8349669 11.0781583,26.8465406 C11.1298781,26.8968136 11.1837679,26.9434699 11.2419979,26.9832544 C11.2466997,26.9865095 11.2517632,26.9886795 11.2561033,26.9919346 C11.3136099,27.0302723 11.3743716,27.0620999 11.43658,27.089949 C11.449962,27.0960975 11.4633441,27.1026077 11.4770878,27.1080328 C11.5447213,27.1355203 11.6145249,27.1568592 11.6857753,27.1720496 C11.6915621,27.1731347 11.6966256,27.1760281 11.7027741,27.1771131 C11.7114543,27.1789215 11.7197729,27.1781981 11.7284531,27.1796448 C11.7989801,27.1923035 11.8702304,27.2006221 11.9418424,27.2009838 C11.9443741,27.2009838 11.9469059,27.2017071 11.9490759,27.2017071 C11.9559478,27.2017071 11.962458,27.1998987 11.9693298,27.1998987 C12.0282831,27.1988137 12.0875981,27.1937502 12.1465514,27.1843466 C12.1700604,27.1807299 12.1924844,27.1742197 12.2156317,27.1691562 C12.2575862,27.1601143 12.299179,27.1496257 12.3404101,27.1358819 C12.3653658,27.1275634 12.3892365,27.1177981 12.4134688,27.1080328 C12.4503599,27.0932041 12.4868892,27.076567 12.5230569,27.0577598 C12.5480126,27.0447394 12.5726066,27.0309957 12.5964773,27.0161669 C12.611306,27.007125 12.6264964,27.0006149 12.6409635,26.9908496 C12.6543455,26.9818077 12.6644725,26.970234 12.6774929,26.9608304 C12.718724,26.9311729 12.7574234,26.8989837 12.7946761,26.8642627 C12.816015,26.8443705 12.8377156,26.82484 12.8576079,26.8038627 C12.8919672,26.7673334 12.9227097,26.7275489 12.9523672,26.6870411 C12.968281,26.6653405 12.9856414,26.6450866 13.0001085,26.622301 C13.030851,26.5756447 13.0561684,26.5246483 13.0800391,26.4725668 L13.0800391,26.4725668 Z M21.0535643,15.9857499 L19.0921914,13.0438714 C19.091468,13.0424247 19.0900213,13.0417013 19.089298,13.0402546 C19.0443632,12.9733251 18.9930027,12.9109415 18.9359471,12.8539911 C18.909183,12.827227 18.8784404,12.8062498 18.8495063,12.7820174 C18.8158704,12.7538066 18.7840428,12.7237875 18.7475135,12.6991935 C18.7091757,12.6735144 18.6672212,12.6547072 18.6267134,12.6333683 C18.5952476,12.6170928 18.5659518,12.5975623 18.5330392,12.5838186 C18.3800074,12.5202384 18.2159148,12.4876125 18.0502007,12.4876125 C18.0274151,12.4876125 18.0057145,12.4923144 17.9829289,12.4937611 C17.9239756,12.4970162 17.8650222,12.5006329 17.8064306,12.5122066 C17.7793049,12.5176317 17.7543492,12.5281204 17.7279468,12.5353539 C17.676227,12.5494593 17.6241455,12.562118 17.5738725,12.5830952 C17.5264928,12.6026258 17.4830916,12.6297515 17.4386054,12.6547072 C17.412203,12.669536 17.3847155,12.6800246 17.3593982,12.6970234 C17.341676,12.7089587 17.3279323,12.7241492 17.3109335,12.7368078 C17.2621071,12.7729755 17.2132808,12.8095049 17.1702412,12.8525444 C17.1405837,12.8822019 17.1170748,12.9158378 17.091034,12.9476654 C17.065355,12.9787696 17.0375059,13.0077037 17.0150819,13.0413397 C16.9890412,13.0804007 16.9695107,13.1227169 16.9481717,13.1643097 C16.9322579,13.1950523 16.9130891,13.2236247 16.899707,13.2561756 C16.8678795,13.3328511 16.8432855,13.4120583 16.82701,13.4930739 L14.8659988,23.2977685 C14.7307317,23.9748273 15.1698072,24.633079 15.8465044,24.7683461 C15.9293284,24.7849832 16.011429,24.7929401 16.0928062,24.7929401 C16.6765525,24.7929401 17.198452,24.3817136 17.317082,23.7878404 L18.6863901,16.9409382 L18.9739231,17.3720569 C19.2147998,17.7333719 19.6111975,17.9286773 20.0151904,17.9286773 C20.2531737,17.9286773 20.4944121,17.8610438 20.7074397,17.7185432 C21.2814207,17.3362509 21.43658,16.5600926 21.0535643,15.9857499 L21.0535643,15.9857499 Z" id="形状结合" fill="#FFFFFF"></path>
                            <path d="M18.7500452,0 C13.8522189,0 9.68823466,3.13139716 8.14315165,7.50009042 L7.50009042,7.50009042 C3.35816847,7.50009042 0,10.8578972 0,15.0001808 C0,19.1424645 3.35780679,22.5002713 7.50009042,22.5006329 L7.50009042,20 C4.73868856,20 2.49990958,17.7615827 2.49990958,14.9998192 C2.49990958,12.2384173 4.73868856,9.99963832 7.50009042,9.99963832 L10.0933126,9.99963832 C10.7002062,5.76006366 14.3430142,2.4995479 18.7500452,2.4995479 C23.582408,2.4995479 27.5000904,6.4168686 27.5000904,11.2495931 C27.5000904,16.0819559 24.8327245,19.9996383 20,19.9996383 L20,22.4995479 C26.2132446,22.4995479 30,17.462476 30,11.2495931 C30.0003617,5.03671019 24.9632898,0 18.7500452,0 Z" id="路径" fill="#27D7FF"></path>
                        </g>
                    </g>
                </g>
            </g>
        </g>
    </g>
</svg>