<?xml version="1.0" encoding="UTF-8"?>
<svg width="30px" height="30px" viewBox="0 0 30 30" version="1.1" xmlns="http://www.w3.org/2000/svg" xmlns:xlink="http://www.w3.org/1999/xlink">
    <title>编组 38</title>
    <g id="页面-2" stroke="none" stroke-width="1" fill="none" fill-rule="evenodd">
        <g id="管理门户2.0" transform="translate(-945.000000, -122.000000)">
            <g id="资源概览" transform="translate(483.000000, 100.000000)">
                <g id="编组-11" transform="translate(62.000000, 10.000000)">
                    <g id="编组-9备份-12" transform="translate(360.000000, 0.000000)">
                        <g id="编组-36" transform="translate(18.000000, 12.000000)">
                            <g id="编组-38" transform="translate(22.000000, 0.000000)">
                                <rect id="矩形" fill="#D8D8D8" opacity="0" x="0" y="0" width="30" height="30"></rect>
                                <g id="编组-5" transform="translate(0.000000, 1.000000)">
                                    <path d="M23.6367988,-7.10542736e-15 C26.0473841,-7.10542736e-15 28.0004162,1.95303209 28,4.36403376 L28,4.36403376 L28,18.9095639 C28,21.3205656 26.0473841,23.2731814 23.6363824,23.2731814 L23.6363824,23.2731814 L15.4544697,23.2731814 L15.4544697,25.1825372 L19.8180871,25.1825372 C20.6216155,25.1825372 21.272765,25.8336867 21.272765,26.6372151 C21.272765,27.4407436 20.6211992,28.091893 19.8180871,28.091893 L19.8180871,28.091893 L8.18149643,28.091893 C7.37796798,28.091893 6.72681851,27.4407436 6.72681851,26.6372151 C6.72681851,25.8336867 7.37838432,25.1825372 8.18149643,25.1825372 L8.18149643,25.1825372 L12.5455302,25.1825372 L12.5455302,23.2731814 L4.36361742,23.2731814 C1.95261575,23.2731814 3.83693077e-13,21.3205656 3.83693077e-13,18.9095639 L3.83693077e-13,18.9095639 L3.83693077e-13,4.36361742 C3.83693077e-13,1.95261575 1.95261575,-7.10542736e-15 4.36361742,-7.10542736e-15 L4.36361742,-7.10542736e-15 Z M24.5,2.5 L3.5,2.5 C2.94771525,2.5 2.5,2.94771525 2.5,3.5 L2.5,3.5 L2.5,19.5 C2.5,20.0522847 2.94771525,20.5 3.5,20.5 L3.5,20.5 L24.5,20.5 C25.0522847,20.5 25.5,20.0522847 25.5,19.5 L25.5,19.5 L25.5,3.5 C25.5,2.94771525 25.0522847,2.5 24.5,2.5 L24.5,2.5 Z" id="形状结合" fill="#27D7FF" fill-rule="nonzero"></path>
                                    <path d="M13.5,13 C14.3284271,13 15,13.6715729 15,14.5 C15,15.3284271 14.3284271,16 13.5,16 L7.5,16 C6.67157288,16 6,15.3284271 6,14.5 C6,13.6715729 6.67157288,13 7.5,13 L13.5,13 Z M20.5,7 C21.3284271,7 22,7.67157288 22,8.5 C22,9.32842712 21.3284271,10 20.5,10 L7.5,10 C6.67157288,10 6,9.32842712 6,8.5 C6,7.67157288 6.67157288,7 7.5,7 L20.5,7 Z" id="形状结合" fill="#FFFFFF"></path>
                                </g>
                            </g>
                        </g>
                    </g>
                </g>
            </g>
        </g>
    </g>
</svg>