<?xml version="1.0" encoding="UTF-8"?>
<svg width="30px" height="30px" viewBox="0 0 30 30" version="1.1" xmlns="http://www.w3.org/2000/svg" xmlns:xlink="http://www.w3.org/1999/xlink">
    <title>编组 38</title>
    <g id="页面-2" stroke="none" stroke-width="1" fill="none" fill-rule="evenodd">
        <g id="管理门户2.0" transform="translate(-1065.000000, -122.000000)">
            <g id="资源概览" transform="translate(483.000000, 100.000000)">
                <g id="编组-11" transform="translate(62.000000, 10.000000)">
                    <g id="编组-9备份-13" transform="translate(480.000000, 0.000000)">
                        <g id="编组-36" transform="translate(18.000000, 12.000000)">
                            <g id="编组-38" transform="translate(22.000000, 0.000000)">
                                <rect id="矩形" fill="#D8D8D8" opacity="0" x="0" y="0" width="30" height="30"></rect>
                                <g id="物理云" transform="translate(1.000000, 1.000000)" fill-rule="nonzero">
                                    <path d="M11.4175347,11.2845293 C14.5711806,11.2845293 17.1573592,13.7613329 17.333912,16.8717689 C19.6945891,17.5367959 21.402392,19.6989776 21.402392,22.2517361 C21.402392,25.3375289 18.8921682,27.8477527 15.8063754,27.8477527 L5.59601659,27.8477527 C2.51056134,27.8477527 -1.25173945e-13,25.3375289 -1.25173945e-13,22.2517361 C-1.25173945e-13,20.4048515 0.912808642,18.6994117 2.39308449,17.6654128 C2.37046682,17.4827836 2.3589892,17.298804 2.3589892,17.1138117 C2.3589892,14.6032504 4.4016686,12.5609086 6.91189236,12.5609086 C7.16608796,12.5609086 7.41960841,12.5828511 7.67076582,12.626061 C8.72366898,11.7662519 10.0520351,11.2845293 11.4175347,11.2845293 Z M25.8020351,0.0300443673 C26.9943576,0.0300443673 27.9645544,0.999903549 27.9645544,2.19222608 L27.9645544,25.6298708 C27.9645544,26.8218557 26.9943576,27.7920525 25.8020351,27.7920525 L21.9269869,27.7920525 C21.2282022,27.7920525 20.6614101,27.2252604 20.6614101,26.5264757 C20.6614101,25.827691 21.2282022,25.2608989 21.9269869,25.2608989 L25.6,25.2608989 L25.6,2.3 L14.5185185,2.3 L14.5185185,9.57402585 C14.5185185,10.2728106 13.9517265,10.8396026 13.2529417,10.8396026 C12.554157,10.8396026 11.987365,10.2728106 11.987365,9.57402585 L11.987365,2.19222608 C11.987365,0.999903549 12.9572242,0.0300443673 14.1495467,0.0300443673 L25.8020351,0.0300443673 Z M11.4175347,13.8153453 C10.4746817,13.8153453 9.59664352,14.1968075 8.94613233,14.8895158 L8.37731481,15.4954668 L7.59548611,15.214265 C7.37032215,15.1332465 7.1404321,15.0917245 6.91222994,15.0917245 C5.79721258,15.0917245 4.89014275,15.9987944 4.89014275,17.1138117 C4.89014275,17.35788 4.93639082,17.6016107 5.02719907,17.8382523 L5.45929784,18.9623843 L4.35812114,19.4498457 C3.24816744,19.9406829 2.53115355,21.0408468 2.53115355,22.2513985 C2.53115355,23.9413098 3.90610532,25.3162616 5.59601659,25.3162616 L15.8063754,25.3162616 C17.4962867,25.3162616 18.8712384,23.9413098 18.8712384,22.2513985 C18.8712384,20.6165123 17.5904707,19.2743056 15.9559221,19.1953125 L14.549238,19.1277971 L14.7663002,17.736304 C14.7976948,17.5340953 14.8125482,17.366657 14.8125482,17.2103588 C14.8125482,15.3384934 13.2897377,13.8153453 11.4175347,13.8153453 Z" id="形状结合" fill="#27D7FF"></path>
                                    <path d="M23.4562114,6.91121721 L16.4167149,6.91121721 C15.7179302,6.91121721 15.1511381,6.34442515 15.1511381,5.64564043 C15.1511381,4.94685571 15.7179302,4.38006366 16.4167149,4.38006366 L23.4562114,4.38006366 C24.1549961,4.38006366 24.7217882,4.94685571 24.7217882,5.64564043 C24.7217882,6.34442515 24.1549961,6.91121721 23.4562114,6.91121721 L23.4562114,6.91121721 Z M23.4562114,11.6568769 L17.602961,11.6568769 C16.9041763,11.6568769 16.3373843,11.0900849 16.3373843,10.3913002 C16.3373843,9.69251543 16.9041763,9.12572338 17.602961,9.12572338 L23.4558738,9.12572338 C24.1546586,9.12572338 24.7214506,9.69251543 24.7214506,10.3913002 C24.7214506,11.0900849 24.1549961,11.6568769 23.4562114,11.6568769 Z M23.4562114,16.7188465 L19.9362944,16.7188465 C19.2375096,16.7188465 18.6707176,16.1520544 18.6707176,15.4532697 C18.6707176,14.754485 19.2375096,14.1876929 19.9362944,14.1876929 L23.4558738,14.1876929 C24.1546586,14.1876929 24.7214506,14.754485 24.7214506,15.4532697 C24.7214506,16.1520544 24.1549961,16.7188465 23.4562114,16.7188465 Z" id="形状" fill="#FFFFFF"></path>
                                </g>
                            </g>
                        </g>
                    </g>
                </g>
            </g>
        </g>
    </g>
</svg>