<?xml version="1.0" encoding="UTF-8"?>
<svg width="30px" height="30px" viewBox="0 0 30 30" version="1.1" xmlns="http://www.w3.org/2000/svg" xmlns:xlink="http://www.w3.org/1999/xlink">
    <title>编组 38</title>
    <g id="页面-2" stroke="none" stroke-width="1" fill="none" fill-rule="evenodd">
        <g id="管理门户2.0" transform="translate(-705.000000, -122.000000)">
            <g id="资源概览" transform="translate(483.000000, 100.000000)">
                <g id="编组-11" transform="translate(62.000000, 10.000000)">
                    <g id="编组-9备份-10" transform="translate(120.000000, 0.000000)">
                        <g id="编组-36" transform="translate(18.000000, 12.000000)">
                            <g id="编组-38" transform="translate(22.000000, 0.000000)">
                                <rect id="矩形" fill="#D8D8D8" opacity="0" x="0" y="0" width="30" height="30"></rect>
                                <g id="云互通" transform="translate(0.000000, 3.000000)" fill-rule="nonzero">
                                    <path d="M23.9321319,9.3318635 C23.6416794,6.97732937 21.6423025,5.10664302 19.1910707,5.10664302 C18.9329707,5.10664302 18.707223,5.1389954 18.4814753,5.17098831 C17.3847297,2.10721817 14.4820025,0.0105626073 11.1274204,0.0105626073 C6.8055023,-0.0215682515 3.32222968,3.49405675 3.32222968,7.78398198 C3.32222968,8.10642734 3.35458206,8.39687979 3.38657496,8.71932515 C1.25814801,10.3962567 0,12.9441862 0,15.6858704 C0,20.2658886 3.57997028,24.2973543 7.80519076,24.4911091 L8.93428873,24.4911091 C9.06333877,24.4911091 9.1923888,24.4911091 9.35343175,24.4587567 L22.1257908,24.4587567 C26.3833637,24.4587567 29.8342839,21.007477 29.8342839,16.782616 C29.802291,13.1699339 27.3510592,10.1381566 23.9321319,9.3318635 Z M22.1257908,21.9751725 C22.0290932,21.9751725 21.9323955,21.9751725 21.8033455,22.0075249 L7.93460027,22.0075249 C5.06422546,21.8784749 2.51593654,18.9110429 2.51593654,15.6858704 C2.51593654,13.5247316 3.61268213,11.5253547 5.4510161,10.3319114 L6.19296396,9.84806365 L5.99956863,9.00941814 C5.90287097,8.59027512 5.8705186,8.203125 5.8705186,7.78362251 C5.8705186,4.84854294 8.2574051,2.46165644 11.1924847,2.46165644 C13.8051189,2.46165644 16.030603,4.33234279 16.449746,6.91262462 L16.7078461,8.58991564 L18.2237347,7.81597488 C18.54618,7.65457247 18.9009778,7.55787481 19.2557755,7.55787481 C20.513564,7.55787481 21.5456049,8.58991564 21.5456049,9.84770418 C21.5456049,9.94440184 21.5456049,10.0410995 21.5132525,10.1701495 L21.3518501,11.4602905 L22.641991,11.5893405 C25.3513229,11.8150882 27.3830521,14.0729247 27.3830521,16.7822565 C27.3510592,19.6529908 24.9965251,21.9751725 22.1257908,21.9751725 Z" id="形状" fill="#27D7FF"></path>
                                    <path d="M15.739839,10.170509 C15.1916459,10.589652 15.0949482,11.3639523 15.5140913,11.9121453 L15.9655867,12.4926908 L9.09564321,12.4926908 C8.41840012,12.4926908 7.86984758,13.0408838 7.86984758,13.7184864 C7.86984758,14.396089 8.41804064,14.944282 9.09564321,14.944282 L18.4808043,14.944282 C18.7389043,14.944282 18.9970044,14.8475844 19.2227521,14.6861819 C19.7709452,14.2670389 19.8676428,13.4927387 19.4484998,12.9445456 L17.4814753,10.3962567 C17.0623322,9.84806365 16.288032,9.75136599 15.739839,10.170509 Z M18.1910707,16.1697182 L8.83790261,16.1697182 C8.54745015,16.1697182 8.25735717,16.2340635 7.99925709,16.4278183 C7.45106403,16.8469613 7.35436637,17.6212615 7.77350939,18.1694546 L9.61184337,20.5239887 C9.86994344,20.846434 10.2247412,21.0078365 10.5795389,21.0078365 C10.837639,21.0078365 11.0957391,20.9111388 11.3214868,20.7497364 C11.8696798,20.3305934 11.9663775,19.5562931 11.5472345,19.0081001 L11.256782,18.62095 L18.1587184,18.62095 C18.8359615,18.62095 19.384514,18.0727569 19.384514,17.3951543 C19.3841545,16.7179112 18.8683138,16.1697182 18.1910707,16.1697182 Z" id="形状" fill="#FFFFFF"></path>
                                </g>
                            </g>
                        </g>
                    </g>
                </g>
            </g>
        </g>
    </g>
</svg>