<?xml version="1.0" encoding="UTF-8"?>
<svg width="30px" height="30px" viewBox="0 0 30 30" version="1.1" xmlns="http://www.w3.org/2000/svg" xmlns:xlink="http://www.w3.org/1999/xlink">
    <title>编组 38</title>
    <g id="页面-2" stroke="none" stroke-width="1" fill="none" fill-rule="evenodd">
        <g id="管理门户2.0" transform="translate(-1185.000000, -122.000000)">
            <g id="资源概览" transform="translate(483.000000, 100.000000)">
                <g id="编组-11" transform="translate(62.000000, 10.000000)">
                    <g id="编组-9备份-14" transform="translate(600.000000, 0.000000)">
                        <g id="编组-36" transform="translate(18.000000, 12.000000)">
                            <g id="编组-38" transform="translate(22.000000, 0.000000)">
                                <rect id="矩形" fill="#D8D8D8" opacity="0" x="0" y="0" width="30" height="30"></rect>
                                <g id="编组" transform="translate(0.000000, 1.000000)">
                                    <path d="M28.6434174,15.5765834 C29.3928321,15.5765834 30,14.9700365 30,14.2221419 C30,13.47391 29.3924943,12.8677004 28.6434174,12.8677004 L25.0250754,12.8677004 L25.0250754,11.5132589 L28.6430795,11.5132589 C29.3924943,11.5132589 29.9996621,10.906712 29.9996621,10.1588174 C29.9996621,9.41058541 29.3921564,8.80437585 28.6430795,8.80437585 L25.0250754,8.80437585 L25.0250754,8.52404188 C25.0250754,5.9494223 23.1370098,3.81200227 20.6721854,3.40516379 L20.6721854,1.35444151 C20.6721854,0.606209564 20.0646796,0 19.3156028,0 C18.566188,0 17.9590202,0.606546909 17.9590202,1.35444151 L17.9590202,3.32993578 L12.3234464,3.32993578 L12.3234464,1.35444151 C12.3234464,0.606209564 11.7159406,0 10.9668638,0 C10.217449,0 9.61028116,0.606546909 9.61028116,1.35444151 L9.61028116,3.3471404 C6.90049475,3.52390935 4.74888379,5.77501476 4.74888379,8.52437922 L4.74888379,8.8047132 L1.3565826,8.8047132 C0.607167853,8.8047132 0,9.41126011 0,10.1591547 C0,10.9073867 0.607505732,11.5135962 1.3565826,11.5135962 L4.74854592,11.5135962 L4.74854592,12.8680377 L1.3565826,12.8680377 C0.607167853,12.8680377 0,13.4745846 0,14.2224792 C0,14.9707112 0.607505732,15.5769208 1.3565826,15.5769208 L4.74854592,15.5769208 L4.74854592,16.9310249 L1.3565826,16.9310249 C0.607167853,16.9310249 0,17.5375718 0,18.2854664 C0,19.033361 0.607505732,19.639908 1.3565826,19.639908 L4.74854592,19.639908 L4.74854592,20.0895893 C4.9745867,22.7866652 6.61633884,25.2901049 9.48425244,25.291117 L9.48425244,26.6455585 C9.48425244,27.3937904 10.0917582,28 10.840835,28 C11.5902498,28 12.1974176,27.3934531 12.1974176,26.6455585 L12.1974176,25.291117 L17.9022565,25.291117 L17.9022565,26.6455585 C17.9022565,27.3937904 18.5097623,28 19.2588391,28 C20.0082539,28 20.6154217,27.3934531 20.6154217,26.6455585 L20.6154217,25.1487572 C22.9119826,24.6096794 25.0247375,22.5444513 25.0247375,20.0892519 L25.0247375,19.6395706 L28.6427416,19.6395706 C29.3921564,19.6395706 29.9993242,19.0330237 29.9993242,18.2851291 C29.9993242,17.5372345 29.3918185,16.9306876 28.6427416,16.9306876 L25.0250754,16.9306876 L25.0250754,15.5765834 L28.6434174,15.5765834 Z M22.3119102,20.0895893 C22.3119102,21.4602234 21.1952214,22.5748124 19.8227585,22.5748124 L9.9508628,22.5748124 C8.5783999,22.5748124 7.46204899,21.459886 7.46204899,20.0895893 L7.46204899,8.5226925 C7.46204899,7.15205841 8.57873778,6.03746943 9.9508628,6.03746943 L19.8224207,6.03746943 C21.1952214,6.03746943 22.3115723,7.15239575 22.3115723,8.5226925 L22.3119102,20.0895893 Z" id="形状" fill="#27D7FF" fill-rule="nonzero"></path>
                                    <rect id="矩形" stroke="#FFFFFF" stroke-width="2" x="11" y="10" width="8" height="8" rx="2"></rect>
                                </g>
                            </g>
                        </g>
                    </g>
                </g>
            </g>
        </g>
    </g>
</svg>