<?xml version="1.0" encoding="UTF-8"?>
<svg width="30px" height="30px" viewBox="0 0 30 30" version="1.1" xmlns="http://www.w3.org/2000/svg" xmlns:xlink="http://www.w3.org/1999/xlink">
    <title>编组 38</title>
    <g id="页面-2" stroke="none" stroke-width="1" fill="none" fill-rule="evenodd">
        <g id="管理门户2.0" transform="translate(-1305.000000, -122.000000)">
            <g id="资源概览" transform="translate(483.000000, 100.000000)">
                <g id="编组-11" transform="translate(62.000000, 10.000000)">
                    <g id="编组-9备份-15" transform="translate(720.000000, 0.000000)">
                        <g id="编组-36" transform="translate(18.000000, 12.000000)">
                            <g id="编组-38" transform="translate(22.000000, 0.000000)">
                                <rect id="矩形" fill="#D8D8D8" opacity="0" x="0" y="0" width="30" height="30"></rect>
                                <g id="disk" transform="translate(3.000000, 0.000000)" fill-rule="nonzero">
                                    <path d="M3.96152188,0 C1.77274536,0 0,1.40619949 0,3.62917565 L0,25.0877728 C0,27.3107489 1.77274536,29.3350114 3.96152188,29.3350114 L20.6028183,29.3350114 C22.7915948,29.3350114 23.9150531,27.3103953 23.9150531,25.0877728 L23.9150531,3.62917565 C23.9150531,1.40619949 22.7915948,0 20.6028183,0 L3.96152188,0 Z M20.6028183,26.1637258 L3.96187003,26.1637258 C3.23250995,26.1637258 2.64136273,25.715029 2.64136273,24.9746262 C2.64136273,24.2338699 3.23250995,23.7855267 3.96187003,23.7855267 L20.6028183,23.7855267 C21.3321784,23.7855267 21.9233256,24.2342235 21.9233256,24.9746262 C21.9233256,25.715029 21.3318302,26.1637258 20.6028183,26.1637258 Z M20.6028183,21.4066204 L3.96152188,21.4066204 C3.49744695,21.4066204 3.12249668,21.149212 2.34195955,21.2980704 L2.34195955,3.62917565 C2.34195955,2.88806573 3.2321618,2.37855267 3.96152188,2.37855267 L20.6024702,2.37855267 C21.3321784,2.37855267 21.5727455,2.88806573 21.5727455,3.62917565 L21.5727455,21.2980704 C21.5730935,21.1495656 21.0665451,21.4066204 20.6028183,21.4066204 Z" id="形状" fill="#27D7FF"></path>
                                    <path d="M11.999858,17.8122116 C8.43697621,17.8122116 5.53846154,14.8684077 5.53846154,11.2498558 C5.53846154,7.63130396 8.43726013,4.6875 11.999858,4.6875 C15.562456,4.6875 18.4615385,7.63130396 18.4615385,11.2498558 C18.4615385,14.8684077 15.5627399,17.8122116 11.999858,17.8122116 L11.999858,17.8122116 Z M11.999858,6.87495194 C9.62460349,6.87495194 7.69226037,8.83748792 7.69226037,11.2498558 C7.69226037,13.6622237 9.62460349,15.6247597 11.999858,15.6247597 C14.3751126,15.6247597 16.3074557,13.6622237 16.3074557,11.2498558 C16.3074557,8.83748792 14.3751126,6.87495194 11.999858,6.87495194 Z" id="形状" fill="#FFFFFF"></path>
                                </g>
                            </g>
                        </g>
                    </g>
                </g>
            </g>
        </g>
    </g>
</svg>