<?xml version="1.0" encoding="UTF-8"?>
<svg width="28px" height="24px" viewBox="0 0 28 24" version="1.1" xmlns="http://www.w3.org/2000/svg" xmlns:xlink="http://www.w3.org/1999/xlink">
    <title>kafka</title>
    <g id="页面-2" stroke="none" stroke-width="1" fill="none" fill-rule="evenodd">
        <g id="资源管理2.0" transform="translate(-349.000000, -450.000000)" fill-rule="nonzero">
            <g id="运营概览" transform="translate(20.000000, 100.000000)">
                <g id="编组-14" transform="translate(16.000000, 198.000000)">
                    <g id="编组-9备份-5" transform="translate(292.000000, 126.000000)">
                        <g id="kafka" transform="translate(21.000000, 26.000000)">
                            <path d="M1.45706827,10.0520505 C2.25864137,10.0520505 2.90873875,10.7021479 2.90873875,11.503721 L2.90858881,18.6531303 C2.90828893,18.6603773 2.90772666,18.6685115 2.90671457,18.6800943 C2.90671457,18.7681459 2.92020907,19.3824829 3.31424837,19.7886672 C3.63204376,20.1162461 4.1765467,20.2822284 4.93291324,20.2822284 L5.23481815,20.2820572 C5.29018784,20.2820007 5.3480236,20.2819305 5.4082354,20.2818471 L5.79729827,20.2811913 C9.75057706,20.2735173 20.8385015,20.2256669 22.3860665,20.2189156 L22.5651599,20.2181296 L22.5651599,20.2181296 C22.5897873,20.2181296 22.5921489,20.2174548 22.6140774,20.2188043 L22.6268972,20.2188043 C22.9632475,20.2188043 23.8839096,20.1051131 24.427063,19.5710684 C24.7887156,19.2158258 24.9651561,18.6949382 24.9668429,17.9787178 C24.9683764,17.3388538 24.9804737,16.5048437 24.9967326,15.6481335 L25.0069361,15.1327549 C25.0440376,13.3289967 25.0938445,11.5763459 25.0970648,11.4625628 C25.1200054,10.6609897 25.7896698,10.0294472 26.5898935,10.0530626 C27.3914666,10.0760033 28.0223343,10.7443182 27.9993937,11.5458913 C27.9985454,11.5732466 27.9495786,13.2914182 27.9121473,15.0789363 L27.9022695,15.5669423 C27.8848491,16.4603052 27.8716683,17.3341532 27.8701839,17.9858025 C27.8678223,19.0360117 27.6164873,20.5278283 26.4333573,21.6701374 C25.0617292,22.9945972 23.216336,23.117001 22.6641825,23.1225115 L22.3793696,23.1228253 C20.7944561,23.1291725 10.194967,23.1749174 6.05362142,23.1840029 L5.62083472,23.1848577 C5.55339509,23.1849737 5.48836672,23.1850762 5.42584785,23.1851647 L4.93358796,23.1855694 L4.93358796,23.1855694 C2.93977609,23.1855694 1.79443069,22.4113226 1.18447944,21.7615626 C0.0131571342,20.5139964 -0.00708461072,18.9361524 0.00539779865,18.5691021 L0.00539779865,11.503721 C0.00539779865,10.7018105 0.655495173,10.0520505 1.45706827,10.0520505 Z M20.7653314,13.3480813 C21.5672419,13.3480813 22.2170019,13.9981787 22.2170019,14.7997518 C22.2170019,15.6013249 21.5669045,16.2514223 20.7653314,16.2514223 L7.10215357,16.2514223 C6.30024311,16.2514223 5.6504831,15.6013249 5.6504831,14.7997518 C5.6504831,13.9978413 6.30058047,13.3480813 7.10215357,13.3480813 L20.7653314,13.3480813 Z M26.4745155,-5.32907052e-15 C27.276426,-5.32907052e-15 27.926186,0.650097374 27.926186,1.45167047 C27.926186,2.25358093 27.2760886,2.90334095 26.4745155,2.90334095 L1.45167047,2.90334095 C0.649760012,2.90334095 3.55271368e-15,2.25324357 3.55271368e-15,1.45167047 C3.55271368e-15,0.650097374 0.650097374,-5.32907052e-15 1.45167047,-5.32907052e-15 L26.4745155,-5.32907052e-15 Z" id="形状结合" fill="#27D7FF"></path>
                            <path d="M22.99468,9.53791021 L6.94769938,9.53791021 C6.14578892,9.53791021 5.49602891,8.88781283 5.49602891,8.08623973 C5.49602891,7.28432927 6.14612628,6.63456926 6.94769938,6.63456926 L22.9950174,6.63456926 C23.7969279,6.63456926 24.4466879,7.28466664 24.4466879,8.08623973 C24.4466879,8.88781283 23.7965905,9.53791021 22.99468,9.53791021 Z" id="路径" fill="#FFFFFF"></path>
                        </g>
                    </g>
                </g>
            </g>
        </g>
    </g>
</svg>