<?xml version="1.0" encoding="UTF-8"?>
<svg width="30px" height="27px" viewBox="0 0 30 27" version="1.1" xmlns="http://www.w3.org/2000/svg" xmlns:xlink="http://www.w3.org/1999/xlink">
    <title>数据仓库</title>
    <g id="页面-2" stroke="none" stroke-width="1" fill="none" fill-rule="evenodd">
        <g id="管理门户2.0" transform="translate(-585.000000, -125.000000)" fill-rule="nonzero">
            <g id="资源概览" transform="translate(483.000000, 100.000000)">
                <g id="编组-11" transform="translate(62.000000, 10.000000)">
                    <g id="编组-36" transform="translate(18.000000, 12.000000)">
                        <g id="编组-38" transform="translate(22.000000, 0.000000)">
                            <g id="数据仓库" transform="translate(0.006219, 3.009239)">
                                <path d="M29.1073255,8.21725186 L15.2554754,0.189908109 C15.236064,0.178764512 15.2152146,0.173012979 15.1954438,0.162588324 C15.149072,0.138503776 15.1023408,0.117654466 15.0541717,0.0986025108 C15.0117541,0.0820668513 14.9693366,0.0669690752 14.9258406,0.054747066 C14.8807083,0.0421613157 14.8350041,0.0317249172 14.7888822,0.0234731013 C14.7425105,0.0152052716 14.6964982,0.00801585438 14.649767,0.00406167493 C14.6033952,0 14.5570235,0 14.5102923,0 C14.4646395,0.000826437202 14.4193462,0.0026237915 14.3740528,0.00729691266 C14.3266027,0.0123295047 14.2802309,0.0209568053 14.2331403,0.0306625185 C14.1878469,0.0403682317 14.1432725,0.0511523574 14.0986982,0.0648122501 C14.0552022,0.0784721427 14.0127846,0.0946483314 13.9703671,0.112621874 C13.9229169,0.132392772 13.8772641,0.154679965 13.8319708,0.179483454 C13.8121999,0.19026758 13.7913506,0.196738055 13.7719392,0.208600594 L0.691154067,8.23594434 C0.00923784751,8.65436842 -0.204287843,9.5465751 0.214136237,10.2281318 C0.48733409,10.6738757 0.962914036,10.9190348 1.44999705,10.9190348 C1.65813068,10.9190348 1.86518589,10.8608006 2.06253539,10.7676976 L2.06253539,22.4872624 C2.06253539,24.4528491 3.70603616,26.0517754 5.72590292,26.0517754 L24.5654112,26.0517754 C26.5852779,26.0517754 28.2287787,24.4528491 28.2287787,22.4872624 L28.2287787,10.8996234 C28.2791046,10.9050155 28.3287116,10.9190348 28.3790375,10.9190348 C28.878702,10.9190348 29.3650661,10.6602158 29.6339503,10.1964984 C30.0354792,9.504517 29.7993069,8.61842134 29.1073255,8.21725186 Z M5.72626239,23.5056433 C5.14895219,23.5056433 4.67948325,23.0487559 4.67948325,22.4872624 L4.67948325,9.18746371 L14.5501936,3.12966079 L25.6121911,9.54046409 L25.6121911,22.4872624 C25.6125498,23.0487559 25.1430808,23.5056433 24.5657706,23.5056433 L5.72626239,23.5056433 Z" id="形状" fill="#27D7FF"></path>
                                <path d="M20.0820906,12.0231136 L9.76132278,12.0231136 C8.96150012,12.0231136 8.31265522,12.6715991 8.31265522,13.4717812 C8.31265522,14.2716039 8.96114065,14.9204488 9.76132278,14.9204488 L20.0820906,14.9204488 C20.8819133,14.9204488 21.5307582,14.2719633 21.5307582,13.4717812 C21.5303987,12.6715991 20.8819133,12.0231136 20.0820906,12.0231136 Z M20.0820906,17.0067697 L9.76132278,17.0067697 C8.96150012,17.0067697 8.31265522,17.6552551 8.31265522,18.4554373 C8.31265522,19.2552599 8.96114065,19.9041048 9.76132278,19.9041048 L20.0820906,19.9041048 C20.8819133,19.9041048 21.5307582,19.2556194 21.5307582,18.4554373 C21.5303987,17.6552551 20.8819133,17.0067697 20.0820906,17.0067697 Z" id="形状" fill="#FFFFFF"></path>
                            </g>
                        </g>
                    </g>
                </g>
            </g>
        </g>
    </g>
</svg>