<?xml version="1.0" encoding="UTF-8"?>
<svg width="30px" height="26px" viewBox="0 0 30 26" version="1.1" xmlns="http://www.w3.org/2000/svg" xmlns:xlink="http://www.w3.org/1999/xlink">
    <title>编组 6</title>
    <g id="页面-2" stroke="none" stroke-width="1" fill="none" fill-rule="evenodd">
        <g id="资源管理2.0" transform="translate(-182.000000, -177.000000)" fill-rule="nonzero">
            <g id="运营概览" transform="translate(20.000000, 100.000000)">
                <g id="编组-14" transform="translate(16.000000, 16.000000)">
                    <g id="编组-9备份" transform="translate(110.000000, 40.000000)">
                        <g id="编组-8" transform="translate(9.000000, 21.000000)">
                            <g id="编组-6" transform="translate(27.000000, 0.000000)">
                                <path d="M12.8665274,-3.33066907e-15 L1.34579815,-3.33066907e-15 C0.602787387,-3.33066907e-15 -3.5971226e-13,0.602441156 -3.5971226e-13,1.34579815 L-3.5971226e-13,24.5816073 C-3.5971226e-13,25.3246181 0.602441156,25.9270592 1.34579815,25.9270592 L12.8665274,25.9270592 C13.6095381,25.9270592 14.2123255,25.3246181 14.2123255,24.5816073 L14.2123255,1.34579815 C14.2119793,0.602441156 13.6095381,-3.33066907e-15 12.8665274,-3.33066907e-15 Z M11.775,23.4375 L2.4375,23.4375 L2.4375,2.4375 L11.775,2.4375 L11.775,23.4375 Z M28.6545481,-3.33066907e-15 L17.1338189,-3.33066907e-15 C16.3908081,-3.33066907e-15 15.788367,0.602441156 15.788367,1.34579815 L15.788367,24.5816073 C15.788367,25.3246181 16.3908081,25.9270592 17.1338189,25.9270592 L28.6545481,25.9270592 C29.3975588,25.9270592 30,25.3246181 30,24.5816073 L30,1.34579815 C30,0.602441156 29.3975588,-3.33066907e-15 28.6545481,-3.33066907e-15 Z M27.5625,23.4375 L18.225,23.4375 L18.225,2.4375 L27.5625,2.4375 L27.5625,23.4375 Z" id="形状结合" fill="#27D7FF"></path>
                                <path d="M5.62892395,7.19778689 L8.51519414,7.19778689 C9.25855113,7.19778689 9.86099228,6.59534574 9.86099228,5.85198875 C9.86099228,5.10863176 9.25855113,4.5061906 8.51519414,4.5061906 L5.62892395,4.5061906 C4.88556696,4.5061906 4.2831258,5.10863176 4.2831258,5.85198875 C4.2831258,6.59534574 4.88556696,7.19778689 5.62892395,7.19778689 Z M5.62892395,11.7382543 L8.51519414,11.7382543 C9.25855113,11.7382543 9.86099228,11.1358132 9.86099228,10.3924562 C9.86099228,9.64909919 9.25855113,9.04665803 8.51519414,9.04665803 L5.62892395,9.04665803 C4.88556696,9.04665803 4.2831258,9.64909919 4.2831258,10.3924562 C4.2831258,11.1358132 4.88556696,11.7382543 5.62892395,11.7382543 Z M5.62892395,16.3133448 L8.51519414,16.3133448 C9.25855113,16.3133448 9.86099228,15.7105574 9.86099228,14.9675467 C9.86099228,14.2241897 9.25855113,13.6217485 8.51519414,13.6217485 L5.62892395,13.6217485 C4.88556696,13.6217485 4.2831258,14.2241897 4.2831258,14.9675467 C4.2831258,15.7105574 4.88556696,16.3133448 5.62892395,16.3133448 Z M21.5876363,6.85640357 L24.4739065,6.85640357 C25.2169173,6.85640357 25.8197047,6.25396242 25.8197047,5.51060543 C25.8197047,4.76724844 25.2169173,4.16480728 24.4739065,4.16480728 L21.5876363,4.16480728 C20.8446256,4.16480728 20.2418382,4.76724844 20.2418382,5.51060543 C20.2418382,6.25396242 20.8442793,6.85640357 21.5876363,6.85640357 Z M21.5876363,11.396871 L24.4739065,11.396871 C25.2169173,11.396871 25.8197047,10.7944298 25.8197047,10.0510729 C25.8197047,9.30771586 25.2169173,8.70527471 24.4739065,8.70527471 L21.5876363,8.70527471 C20.8446256,8.70527471 20.2418379,9.30771586 20.2418379,10.0510729 C20.241492,10.7944298 20.8442793,11.396871 21.5876363,11.396871 Z M21.5876363,15.9716153 L24.4739065,15.9716153 C25.2169173,15.9716153 25.8197047,15.3691741 25.8197047,14.6258171 C25.8197047,13.8824601 25.2169173,13.280019 24.4739065,13.280019 L21.5876363,13.280019 C20.8446256,13.280019 20.2418382,13.8824601 20.2418382,14.6258171 C20.2418382,15.3691741 20.8442793,15.9716153 21.5876363,15.9716153 Z" id="形状" fill="#FFFFFF"></path>
                            </g>
                        </g>
                    </g>
                </g>
            </g>
        </g>
    </g>
</svg>