<?xml version="1.0" encoding="UTF-8"?>
<svg width="28px" height="27px" viewBox="0 0 28 27" version="1.1" xmlns="http://www.w3.org/2000/svg" xmlns:xlink="http://www.w3.org/1999/xlink">
    <title>镜像</title>
    <g id="页面-2" stroke="none" stroke-width="1" fill="none" fill-rule="evenodd">
        <g id="资源管理2.0" transform="translate(-58.000000, -448.000000)" fill-rule="nonzero">
            <g id="运营概览" transform="translate(20.000000, 100.000000)">
                <g id="编组-14" transform="translate(16.000000, 198.000000)">
                    <g id="编组-9" transform="translate(0.000000, 126.000000)">
                        <g id="镜像" transform="translate(22.000000, 24.000000)">
                            <path d="M25.2103333,2.89266245 L20.1473298,2.89266245 C18.6091466,2.89266245 17.3576632,4.14414588 17.3576632,5.6823291 L17.3576632,20.8706643 C17.3576632,22.4088475 18.6091466,23.6603309 20.1473298,23.6603309 L25.2103333,23.6603309 C26.7485166,23.6603309 28,22.4088475 28,20.8706643 L28,5.6823291 C28,4.14414588 26.7488543,2.89266245 25.2103333,2.89266245 Z M25.5203338,20.871002 C25.5203338,21.0418737 25.3815428,21.1810025 25.2103333,21.1810025 L20.1473298,21.1810025 C19.9764581,21.1810025 19.8373293,21.0422114 19.8373293,20.871002 L19.8373293,5.6823291 C19.8373293,5.51145738 19.9761204,5.37232862 20.1473298,5.37232862 L25.2103333,5.37232862 C25.3812051,5.37232862 25.5203338,5.51111969 25.5203338,5.6823291 L25.5203338,20.871002 Z M7.85233248,3.20266294 L2.78966665,3.20266294 C1.25148343,3.20266294 0,4.45414636 0,5.99232959 L0,21.1806648 C0,22.718848 1.25148343,23.9703314 2.78966665,23.9703314 L7.85233248,23.9703314 C9.3905157,23.9703314 10.6423368,22.718848 10.6423368,21.1806648 L10.6423368,5.99232959 C10.6419991,4.45414636 9.3905157,3.20266294 7.85233248,3.20266294 L7.85233248,3.20266294 Z M8.16199527,21.1806648 C8.16199527,21.3515365 8.02286652,21.4906653 7.85199479,21.4906653 L2.78966665,21.4906653 C2.61879492,21.4906653 2.47966617,21.3518742 2.47966617,21.1806648 L2.47966617,5.99232959 C2.47966617,5.82145786 2.61879492,5.6823291 2.78966665,5.6823291 L7.85233248,5.6823291 C8.02320421,5.6823291 8.16233296,5.82112017 8.16233296,5.99232959 L8.16233296,21.1806648 L8.16199527,21.1806648 Z" id="形状" fill="#27D7FF"></path>
                            <path d="M14,18.7009986 C14.6845,18.7009986 15.2396642,19.2561629 15.2400019,19.9410005 L15.2400019,19.9410005 L15.2400019,25.3136668 C15.2400019,25.9985045 14.6848377,26.5536688 14,26.5536688 C13.3151623,26.5536688 12.7599981,25.9985045 12.7599981,25.3136668 L12.7599981,25.3136668 L12.7599981,19.9410005 C12.7599981,19.2561629 13.3151623,18.7009986 14,18.7009986 Z M14,9.55699744 C14.6845,9.55699744 15.2396642,10.1121617 15.2400019,10.7969994 L15.2400019,10.7969994 L15.2400019,16.1696657 C15.2400019,16.8545034 14.6848377,17.4096676 14,17.4096676 C13.3151623,17.4096676 12.7599981,16.8545034 12.7599981,16.1696657 L12.7599981,16.1696657 L12.7599981,10.7969994 C12.7599981,10.1121617 13.3151623,9.55699744 14,9.55699744 Z M14,1.97175609e-14 C14.6845,1.97175609e-14 15.2396642,0.555164263 15.2400019,1.24000193 L15.2400019,1.24000193 L15.2400019,6.61266824 C15.2400019,7.29750591 14.6848377,7.85267017 14,7.85267017 C13.3151623,7.85267017 12.7599981,7.29750591 12.7599981,6.61266824 L12.7599981,6.61266824 L12.7599981,1.24000193 C12.7599981,0.555164263 13.3151623,1.97175609e-14 14,1.97175609e-14 Z" id="形状结合" fill="#FFFFFF"></path>
                        </g>
                    </g>
                </g>
            </g>
        </g>
    </g>
</svg>