<?xml version="1.0" encoding="UTF-8"?>
<svg width="30px" height="29px" viewBox="0 0 30 29" version="1.1" xmlns="http://www.w3.org/2000/svg" xmlns:xlink="http://www.w3.org/1999/xlink">
    <title>编组 7</title>
    <g id="页面-2" stroke="none" stroke-width="1" fill="none" fill-rule="evenodd">
        <g id="资源管理2.0" transform="translate(-400.000000, -176.000000)" fill-rule="nonzero">
            <g id="运营概览" transform="translate(20.000000, 100.000000)">
                <g id="编组-14" transform="translate(16.000000, 16.000000)">
                    <g id="编组-9备份-3" transform="translate(330.000000, 40.000000)">
                        <g id="编组-7" transform="translate(34.000000, 20.000000)">
                            <path d="M3.95522929,17.231006 L0.572632162,11.3352593 C0.218121023,10.717359 0.219038042,9.95753218 0.575039607,9.34048935 L3.9565894,3.47938858 C4.31377598,2.86029182 4.97419511,2.47886576 5.68894196,2.47886576 L12.4859047,2.47886576 C13.2006515,2.47886576 13.8610706,2.86029182 14.2182572,3.47938858 L17.599807,9.34048935 C17.9558086,9.95753218 17.9567256,10.717359 17.6022145,11.3352593 L14.2196173,17.231006 C13.8630677,17.8524594 13.2013292,18.2357133 12.4848573,18.2357133 L5.6899893,18.2357133 C4.97351739,18.2357133 4.31177895,17.8524594 3.95522929,17.231006 Z M6.1721656,15.4028791 L12.002681,15.4028791 L14.9065263,10.3411671 L12.0048548,5.31133762 L6.16999179,5.31133762 L3.26832037,10.3411671 L6.1721656,15.4028791 Z" id="形状" fill="#27D7FF"></path>
                            <path d="M25.3780824,11.1541713 C26.0949382,11.1541713 26.7569699,11.5378324 27.1133766,12.1598102 L29.4301969,16.2029744 C29.7831448,16.818916 29.7831375,17.5757951 29.4301778,18.1917299 L27.1130209,22.2353007 C26.756609,22.8572598 26.0945878,23.2409062 25.3777458,23.2409062 L20.699074,23.2409062 C19.9821998,23.2409062 19.3201539,22.8572255 18.9637541,22.2352224 L16.6468694,18.1917036 C16.2939535,17.5757808 16.2939633,16.8189401 16.6468951,16.2030264 L18.9637452,12.1598102 C19.320152,11.5378324 19.9821837,11.1541713 20.6990395,11.1541713 L25.3780824,11.1541713 Z M24.8948118,13.9862809 L21.1815854,13.9862809 L19.3418192,17.1969953 L21.1815854,20.4080721 L24.8948118,20.4080721 L26.734578,17.1969953 L24.8948118,13.9862809 Z" id="形状结合" fill="#27D7FF"></path>
                            <path d="M23.6047548,-2.66453526e-15 C24.3160991,-2.35111787e-15 24.9739098,0.377833189 25.3323269,0.992282411 L26.9468394,3.76010815 C27.3115604,4.38536444 27.3099688,5.15889382 26.9426779,5.78264395 L25.3296464,8.52196762 C24.9701945,9.13240517 24.3146422,9.50714941 23.6062358,9.50714941 L20.4235966,9.50714941 C19.7151496,9.50714941 19.0595661,9.13236262 18.7001284,8.52186969 L17.0873453,5.78261196 C16.7201105,5.15887601 16.718541,4.38539525 17.0832415,3.76017409 L18.6977924,0.992282411 C19.0562095,0.377833189 19.7140203,-2.75590805e-15 20.4253645,-2.66453526e-15 L23.6047548,-2.66453526e-15 Z M23.1260567,2.83319646 L20.9037003,2.83319646 L19.7762185,4.7660741 L20.899715,6.67467755 L23.1296797,6.67467755 L24.2535385,4.7660741 L23.1260567,2.83319646 Z" id="形状结合" fill="#FFFFFF"></path>
                            <path d="M14.4336687,19.4751461 C15.1499507,19.4751461 15.811544,19.8581985 16.1681642,20.4793925 L17.7234801,23.1885853 C18.0774861,23.8052256 18.0774861,24.5634523 17.7234801,25.1800925 L16.1681642,27.8892853 C15.811544,28.5104793 15.1499507,28.8935317 14.4336687,28.8935317 L11.2980593,28.8935317 C10.5817772,28.8935317 9.92018394,28.5104793 9.56356373,27.8892853 L8.00824779,25.1800925 C7.65424182,24.5634523 7.65424182,23.8052256 8.00824779,23.1885853 L9.56356373,20.4793925 C9.92018394,19.8581985 10.5817772,19.4751461 11.2980593,19.4751461 L14.4336687,19.4751461 Z M13.9514999,22.307618 L11.7805903,22.307618 L10.7031061,24.1843389 L11.7805903,26.0606976 L13.9514999,26.0606976 L15.0289841,24.1839766 L13.9514999,22.307618 Z" id="形状结合" fill="#FFFFFF"></path>
                        </g>
                    </g>
                </g>
            </g>
        </g>
    </g>
</svg>